REM DIRINDEX 1\2,1\3\7,1\3\8,1\4\9,1\4\10,1\4\11,1\5\12,1\5\13,1\5\14,1\6\15,1\6\16,1\6\17
REM DIRNAME "folder01","folder02","folder03","folder04","folder05","folder06","folder07","folder08","folder09","folder10","folder11","folder12","folder13","folder14","folder15","folder16","folder17"
TITLE ""
FILE "2Q_t_0535-0552.mp3" MP3
  TRACK 01 AUDIO
    TITLE "0:"
    INDEX 01 00:00:00
  TRACK 02 AUDIO
    TITLE "7:cjc174_2828"
    INDEX 01 00:00:14
  TRACK 03 AUDIO
    TITLE "0:"
    INDEX 01 00:01:29
  TRACK 04 AUDIO
    TITLE "8:cjc174_2829"
    INDEX 01 00:02:01
  TRACK 05 AUDIO
    TITLE "0:"
    INDEX 01 00:03:07
  TRACK 06 AUDIO
    TITLE "7:cjc174_2830"
    INDEX 01 00:03:50
  TRACK 07 AUDIO
    TITLE "0:"
    INDEX 01 00:04:63
  TRACK 08 AUDIO
    TITLE "8:cjc174_2831"
    INDEX 01 00:05:33
  TRACK 09 AUDIO
    TITLE "0:"
    INDEX 01 00:07:48
  TRACK 10 AUDIO
    TITLE "7:cjc174_2832"
    INDEX 01 00:08:18
  TRACK 11 AUDIO
    TITLE "0:"
    INDEX 01 00:09:31
  TRACK 12 AUDIO
    TITLE "8:cjc174_2833"
    INDEX 01 00:10:05
  TRACK 13 AUDIO
    TITLE "0:"
    INDEX 01 00:13:03
  TRACK 14 AUDIO
    TITLE "7:cjc174_2834"
    INDEX 01 00:13:48
  TRACK 15 AUDIO
    TITLE "0:"
    INDEX 01 00:15:02
  TRACK 16 AUDIO
    TITLE "8:cjc174_2835"
    INDEX 01 00:15:55
  TRACK 17 AUDIO
    TITLE "0:"
    INDEX 01 00:17:19
  TRACK 18 AUDIO
    TITLE "7:cjc174_2836"
    INDEX 01 00:17:64
  TRACK 19 AUDIO
    TITLE "0:"
    INDEX 01 00:18:71
  TRACK 20 AUDIO
    TITLE "8:cjc174_2837"
    INDEX 01 00:19:51
  TRACK 21 AUDIO
    TITLE "0:"
    INDEX 01 00:22:20
  TRACK 22 AUDIO
    TITLE "7:cjc174_2838"
    INDEX 01 00:22:65
  TRACK 23 AUDIO
    TITLE "0:"
    INDEX 01 00:23:74
  TRACK 24 AUDIO
    TITLE "8:cjc174_2839"
    INDEX 01 00:24:48
  TRACK 25 AUDIO
    TITLE "0:"
    INDEX 01 00:26:72
  TRACK 26 AUDIO
    TITLE "7:cjc174_2840"
    INDEX 01 00:27:42
  TRACK 27 AUDIO
    TITLE "0:"
    INDEX 01 00:28:40
  TRACK 28 AUDIO
    TITLE "8:cjc174_2841"
    INDEX 01 00:29:14
  TRACK 29 AUDIO
    TITLE "0:"
    INDEX 01 00:32:08
  TRACK 30 AUDIO
    TITLE "7:cjc174_2842"
    INDEX 01 00:32:53
  TRACK 31 AUDIO
    TITLE "0:"
    INDEX 01 00:33:51
  TRACK 32 AUDIO
    TITLE "8:cjc174_2843"
    INDEX 01 00:34:25
  TRACK 33 AUDIO
    TITLE "0:"
    INDEX 01 00:36:30
  TRACK 34 AUDIO
    TITLE "7:cjc174_2844"
    INDEX 01 00:36:73
  TRACK 35 AUDIO
    TITLE "0:"
    INDEX 01 00:38:25
  TRACK 36 AUDIO
    TITLE "8:cjc174_2845"
    INDEX 01 00:38:72
  TRACK 37 AUDIO
    TITLE "0:"
    INDEX 01 00:40:02
  TRACK 38 AUDIO
    TITLE "7:cjc174_2846"
    INDEX 01 00:40:45
  TRACK 39 AUDIO
    TITLE "0:"
    INDEX 01 00:41:37
  TRACK 40 AUDIO
    TITLE "8:cjc174_2847"
    INDEX 01 00:42:19
  TRACK 41 AUDIO
    TITLE "0:"
    INDEX 01 00:46:40
  TRACK 42 AUDIO
    TITLE "7:cjc174_2848"
    INDEX 01 00:47:12
  TRACK 43 AUDIO
    TITLE "0:"
    INDEX 01 00:48:21
  TRACK 44 AUDIO
    TITLE "8:cjc174_2849"
    INDEX 01 00:48:72
  TRACK 45 AUDIO
    TITLE "0:"
    INDEX 01 00:52:27
  TRACK 46 AUDIO
    TITLE "7:cjc174_2850"
    INDEX 01 00:52:72
  TRACK 47 AUDIO
    TITLE "0:"
    INDEX 01 00:54:02
  TRACK 48 AUDIO
    TITLE "8:cjc174_2851"
    INDEX 01 00:54:49
  TRACK 49 AUDIO
    TITLE "0:"
    INDEX 01 00:55:39
  TRACK 50 AUDIO
    TITLE "7:cjc174_2852"
    INDEX 01 00:56:09
  TRACK 51 AUDIO
    TITLE "0:"
    INDEX 01 00:57:32
  TRACK 52 AUDIO
    TITLE "8:cjc174_2853"
    INDEX 01 00:58:06
  TRACK 53 AUDIO
    TITLE "0:"
    INDEX 01 00:59:27
  TRACK 54 AUDIO
    TITLE "7:cjc174_2854"
    INDEX 01 00:59:72
  TRACK 55 AUDIO
    TITLE "0:"
    INDEX 01 01:01:30
  TRACK 56 AUDIO
    TITLE "8:cjc174_2855"
    INDEX 01 01:02:02
  TRACK 57 AUDIO
    TITLE "0:"
    INDEX 01 01:03:30
  TRACK 58 AUDIO
    TITLE "7:cjc174_2856"
    INDEX 01 01:04:01
  TRACK 59 AUDIO
    TITLE "0:"
    INDEX 01 01:05:14
  TRACK 60 AUDIO
    TITLE "8:cjc174_2857"
    INDEX 01 01:05:61
  TRACK 61 AUDIO
    TITLE "0:"
    INDEX 01 01:08:26
  TRACK 62 AUDIO
    TITLE "7:cjc174_2858"
    INDEX 01 01:08:69
  TRACK 63 AUDIO
    TITLE "0:"
    INDEX 01 01:10:17
  TRACK 64 AUDIO
    TITLE "8:cjc174_2859"
    INDEX 01 01:10:64
  TRACK 65 AUDIO
    TITLE "0:"
    INDEX 01 01:13:15
  TRACK 66 AUDIO
    TITLE "7:cjc174_2860"
    INDEX 01 01:13:58
  TRACK 67 AUDIO
    TITLE "0:"
    INDEX 01 01:14:69
  TRACK 68 AUDIO
    TITLE "8:cjc174_2861"
    INDEX 01 01:15:49
  TRACK 69 AUDIO
    TITLE "0:"
    INDEX 01 01:18:67
  TRACK 70 AUDIO
    TITLE "7:cjc174_2862"
    INDEX 01 01:19:39
  TRACK 71 AUDIO
    TITLE "0:"
    INDEX 01 01:20:70
  TRACK 72 AUDIO
    TITLE "8:cjc174_2863"
    INDEX 01 01:21:50
  TRACK 73 AUDIO
    TITLE "0:"
    INDEX 01 01:22:65
